<svg width="768" height="768" viewBox="0 0 768 768" fill="none" xmlns="http://www.w3.org/2000/svg">
  <rect width="768" height="768" rx="48" fill="#020617"/>
  <circle cx="384" cy="332" r="246" stroke="#E5E7EB" stroke-width="16"/>
  <path d="M144 332a240 240 0 0 1 480 0" stroke="#0EA5E9" stroke-width="18" stroke-linecap="round"/>
  <path d="M168 574c48 58 121 95 216 95s168-37 216-95" stroke="#0EA5E9" stroke-width="12" stroke-linecap="round"/>
  <path d="M250 293c0-47 38-85 85-85h98c47 0 85 38 85 85v73H250v-73Z" fill="#07111F" stroke="#1D4ED8" stroke-width="10"/>
  <path d="M288 346c24-34 55-51 96-51s72 17 96 51" stroke="#93C5FD" stroke-width="10" stroke-linecap="round"/>
  <circle cx="384" cy="375" r="58" fill="#020617" stroke="#CBD5E1" stroke-width="10"/>
  <path d="M384 317v35M330 392l33-15M438 392l-33-15" stroke="#0EA5E9" stroke-width="10" stroke-linecap="round"/>
  <path d="M103 445h562l-42 78H145l-42-78Z" fill="#020617" stroke="#0EA5E9" stroke-width="10" stroke-linejoin="round"/>
  <text x="384" y="516" text-anchor="middle" font-family="Arial Black, Impact, sans-serif" font-size="106" font-weight="900" letter-spacing="-5">
    <tspan fill="#0EA5E9">DRI</tspan><tspan fill="#F8FAFC">VER</tspan>
  </text>
  <text x="384" y="590" text-anchor="middle" font-family="Arial, sans-serif" font-size="38" font-weight="800" letter-spacing="12" fill="#E5E7EB">GAME CENTER</text>
  <text x="384" y="635" text-anchor="middle" font-family="Arial, sans-serif" font-size="18" font-weight="700" letter-spacing="9" fill="#93C5FD">SIMULYASIYA - YARIS - HAYACAN</text>
  <path d="M232 650h304" stroke="#0EA5E9" stroke-width="8" stroke-linecap="round"/>
</svg>
